<?xml version="1.0" standalone="no"?><!DOCTYPE svg PUBLIC "-//W3C//DTD SVG 1.1//EN" "http://www.w3.org/Graphics/SVG/1.1/DTD/svg11.dtd"><svg t="1552233805529" class="icon" style="" viewBox="0 0 1024 1024" version="1.1" xmlns="http://www.w3.org/2000/svg" p-id="1222" xmlns:xlink="http://www.w3.org/1999/xlink" width="200" height="200"><defs><style type="text/css"></style></defs><path d="M950.7 528.2c8.7 12.5 10.8 28.4 5.6 42.5-19.2 52.3-68.3 86.4-123.5 86.4-2.1 0-4.2-0.1-6.4-0.2-35.7-1.7-67.4-17.6-90-42.3v82c0 20.2 15.2 37.2 34.7 38.6 16.8 1.3 32.1-8.4 38.1-24.2 7.1-18.8 24.4-30.9 44.1-30.9 15.4 0 29.8 7.5 38.7 20.2 8.7 12.5 10.8 28.3 5.6 42.5-19.1 52.3-68.3 86.4-123.5 86.4-2.1 0-4.2-0.1-6.4-0.1-70.2-3.3-125.2-61.8-125.2-133.1V516.9c0-6.6-5.4-12-12-12s-12 5.4-12 12V899c0 25.9-21.1 47-47 47s-47-21-47-47V516.9c0-6.6-5.4-12-12-12s-12 5.4-12 12V899c0 25.9-21.1 47-47 47s-47-21-47-47V516.9c0-6.6-5.4-12-12-12s-12 5.4-12 12v179.4c0 71.3-55 129.7-125.2 133.1-2.1 0.1-4.2 0.1-6.4 0.1-55.2 0-104.4-34.1-123.5-86.4-5.2-14.2-3.1-30.1 5.6-42.5 8.8-12.6 23.3-20.2 38.6-20.2 19.7 0 37 12.1 44.1 30.9 6 15.7 21.3 25.5 38.1 24.2 19.4-1.4 34.6-18.4 34.6-38.6v-82c-22.6 24.6-54.3 40.6-90 42.3-2.1 0.1-4.3 0.2-6.4 0.2-55.2 0-104.4-34.1-123.5-86.4-5.2-14.2-3.1-30.1 5.6-42.5 8.8-12.6 23.3-20.1 38.6-20.1 19.7 0 37 12.1 44.1 30.9 6 15.7 21.3 25.4 38.1 24.2 19.4-1.5 34.7-18.4 34.7-38.6l0.1-130.2c2-41.8 23.8-79.6 58.9-102.7C294 172.8 392.3 77.7 512.4 77.7c120.1 0 218.4 95.1 223.7 213.9 35.1 23.2 56.9 60.9 58.9 102.8 0.1 1.1 0.1 130.1 0.1 130.1 0 20.2 15.2 37.1 34.7 38.6 16.8 1.3 32.1-8.5 38.1-24.2C875 520.1 892.3 508 912 508c15.4 0.1 29.9 7.6 38.7 20.2z" fill="#663333" p-id="1223"></path><path d="M921.9 548.4c1.3 1.8 3.1 5.6 1.4 10.3-7.4 20.2-21 36.7-38.1 47.8-4.9-3.9-11.7-5-17.8-2.4-6.1 2.7-9.9 8.5-10.2 14.7-9.3 2.4-19.1 3.5-29.1 3-5.9-0.3-11.7-1.1-17.2-2.4-0.5-6.2-4.4-11.9-10.6-14.5-6.2-2.6-12.9-1.3-17.7 2.8-13.3-8.2-24.4-19.6-32.4-33.2 4.1-4.7 5.5-11.5 3.1-17.7-2.5-6.2-8.1-10.2-14.4-10.8-1.6-7.1-2.5-14.5-2.5-22.1v-16c6.2-2.6 10.6-8.7 10.6-15.9 0-7.2-4.4-13.3-10.6-15.9v-39.7c6.2-2.6 10.6-8.7 10.6-15.9 0-7.2-4.4-13.3-10.6-15.9v-6.5c0-9.7-7.9-17.6-17.6-17.6s-17.6 7.9-17.6 17.6v298.5c0 38.5 29.5 70.8 67.2 73.7 32.5 2.5 62.1-16.4 73.6-46.8 1.9-5 6.3-8.2 11.3-8.2 5.6 0 8.7 3.6 9.8 5.1 1.3 1.8 3.1 5.6 1.4 10.3-7.4 20.3-21 36.8-38.1 47.9-4.9-3.9-11.7-5.1-17.8-2.3-6.1 2.7-9.9 8.5-10.3 14.7-9.3 2.4-19.1 3.5-29.1 3-5.9-0.3-11.7-1.1-17.2-2.4-0.5-6.2-4.4-11.9-10.5-14.5-6.2-2.5-13-1.3-17.7 2.8-13.3-8.2-24.4-19.6-32.4-33.2 4.1-4.7 5.5-11.5 3.1-17.7-2.5-6.2-8.1-10.2-14.4-10.8-1.6-7.1-2.5-14.5-2.5-22.1v-16c6.2-2.6 10.6-8.7 10.6-15.9 0-7.2-4.4-13.3-10.6-15.9v-39.7c6.2-2.6 10.6-8.7 10.6-15.9s-4.4-13.3-10.6-15.9v-60.1c0-26-21.2-47.2-47.2-47.2-26 0-47.2 21.2-47.2 47.2v55.6c-6.2 2.6-10.6 8.7-10.6 15.9 0 7.2 4.4 13.3 10.6 15.9v39.7c-6.2 2.6-10.6 8.7-10.6 15.9 0 7.2 4.4 13.3 10.6 15.9v39.6c-6.2 2.6-10.6 8.7-10.6 15.9 0 7.2 4.4 13.3 10.6 15.9v39.9c-6.2 2.6-10.6 8.7-10.6 15.9 0 7.2 4.4 13.3 10.6 15.9v39.7c-6.2 2.6-10.6 8.7-10.6 15.9 0 7.2 4.4 13.3 10.6 15.9v8.6c0 6.5-5.3 11.8-11.8 11.8-6.5 0-11.8-5.3-11.8-11.8V516.9c0-26-21.2-47.2-47.2-47.2-26 0-47.2 21.2-47.2 47.2V899c0 6.5-5.3 11.8-11.8 11.8-6.5 0-11.8-5.3-11.8-11.8v-8.6c6.2-2.6 10.6-8.7 10.6-15.9 0-7.2-4.4-13.3-10.6-15.9v-39.7c6.2-2.6 10.6-8.7 10.6-15.9 0-7.2-4.4-13.3-10.6-15.9v-39.7 0.1c6.2-2.6 10.6-8.7 10.6-15.9 0-7.2-4.4-13.3-10.6-15.9V675.9c6.2-2.6 10.6-8.7 10.6-15.9s-4.4-13.3-10.6-15.9v-39.7c6.2-2.6 10.6-8.7 10.6-15.9 0-7.2-4.4-13.3-10.6-15.9V517c0-26-21.2-47.2-47.2-47.2-26 0-47.2 21.2-47.2 47.2v60c-6.2 2.6-10.6 8.7-10.6 15.9 0 7.2 4.4 13.3 10.6 15.9v39.7c-6.2 2.6-10.6 8.7-10.6 15.9 0 7.2 4.4 13.3 10.6 15.9v16c0 7.6-0.9 15-2.5 22.1-6.2 0.6-11.9 4.6-14.4 10.8-2.5 6.2-1 13 3.1 17.7-8 13.5-19.1 24.9-32.4 33.2-4.8-4-11.6-5.3-17.7-2.8-6.2 2.6-10 8.3-10.6 14.5-5.6 1.3-11.3 2.1-17.2 2.4-10 0.5-19.8-0.6-29.1-3-0.4-6.2-4.1-12-10.3-14.7-6.1-2.7-12.9-1.6-17.8 2.4-17.1-11.1-30.6-27.6-38.1-47.9-1.7-4.7 0.2-8.4 1.4-10.3 1.1-1.5 4.2-5.1 9.9-5.1 4.9 0 9.3 3.2 11.2 8.2 10.9 28.6 37.7 47 68 47 1.9 0 3.8-0.1 5.6-0.2 37.7-2.9 67.2-35.2 67.2-73.7V398.2c0-9.7-7.9-17.6-17.6-17.6-9.7 0-17.6 7.9-17.6 17.6v6.5c-6.2 2.6-10.6 8.7-10.6 15.9 0 7.2 4.4 13.3 10.6 15.9v39.7c-6.2 2.6-10.6 8.7-10.6 15.9 0 7.2 4.4 13.3 10.6 15.9v16c0 7.6-0.9 15-2.5 22.1-6.2 0.6-11.9 4.6-14.4 10.8-2.5 6.2-1 13 3.1 17.7-8 13.5-19.1 24.9-32.4 33.2-4.8-4-11.6-5.3-17.7-2.8-6.2 2.6-10 8.3-10.6 14.5-5.6 1.3-11.3 2.1-17.2 2.4-10 0.5-19.8-0.6-29.1-3-0.4-6.2-4.1-12-10.2-14.7-6.1-2.7-12.9-1.6-17.8 2.4-17.1-11.1-30.6-27.6-38.1-47.8-1.7-4.7 0.2-8.5 1.4-10.3 1.1-1.5 4.2-5.1 9.9-5.1 4.9 0 9.3 3.2 11.2 8.2 10.9 28.7 37.8 47 68 47 1.9 0 3.8-0.1 5.7-0.2 37.7-2.9 67.2-35.2 67.2-73.7 0 0 0-127.6 0.1-128.4 1.6-33.1 20.1-62.7 49.6-79.1 0.4-0.2 0.6-0.4 0.8-0.5 4.9-3.1 8.2-8.6 8.2-14.9 0-104.1 84.7-188.8 188.8-188.8 104.1 0 188.8 84.7 188.8 188.8 0 6.3 3.3 11.8 8.3 14.9 0.2 0.1 0.4 0.3 0.8 0.5 29.5 16.4 48.1 46 49.7 79.2l0.1 128.3c0 38.5 29.5 70.8 67.2 73.7 32.5 2.4 62.1-16.3 73.6-46.8 1.9-5 6.3-8.2 11.3-8.2 5.6-0.1 8.7 3.4 9.8 5z" fill="#4EC8D8" p-id="1224"></path><path d="M644 337c9.5 0 17.2 7.7 17.2 17.2s-7.7 17.2-17.2 17.2-17.2-7.7-17.2-17.2S634.5 337 644 337zM512.4 158.7c9.7 0 17.6 7.9 17.6 17.6 0 9.7-7.9 17.6-17.6 17.6-37.7 0-72.1 19.3-91.9 51.6-3.3 5.4-9.1 8.4-15 8.4-3.1 0-6.3-0.8-9.2-2.6-8.3-5.1-10.8-15.9-5.8-24.2 26.3-42.9 71.9-68.4 121.9-68.4zM380.9 337c9.5 0 17.2 7.7 17.2 17.2s-7.7 17.2-17.2 17.2-17.2-7.7-17.2-17.2c-0.1-9.5 7.7-17.2 17.2-17.2z" fill="#663333" p-id="1225"></path></svg>